<?xml version="1.0" encoding="UTF-8"?>
<!DOCTYPE svg PUBLIC "-//W3C//DTD SVG 1.1//EN" "http://www.w3.org/Graphics/SVG/1.1/DTD/svg11.dtd">
<svg xmlns="http://www.w3.org/2000/svg" version="1.1" width="141px" height="35px" style="shape-rendering:geometricPrecision; text-rendering:geometricPrecision; image-rendering:optimizeQuality; fill-rule:evenodd; clip-rule:evenodd" xmlns:xlink="http://www.w3.org/1999/xlink">
<g><path style="opacity:0.924" fill="#475be8" d="M 8.5,-0.5 C 10.5,-0.5 12.5,-0.5 14.5,-0.5C 17.8059,5.14945 21.1392,10.8161 24.5,16.5C 23.0402,20.8589 20.0402,22.3589 15.5,21C 14.1258,18.4171 12.6258,15.9171 11,13.5C 9.97827,14.354 9.14494,15.354 8.5,16.5C 9.78852,19.5802 11.4552,22.4136 13.5,25C 17.1667,25.6667 20.8333,25.6667 24.5,25C 26.2376,22.3581 27.5709,19.5247 28.5,16.5C 25.7594,10.6849 22.7594,5.0182 19.5,-0.5C 22.8333,-0.5 26.1667,-0.5 29.5,-0.5C 33.1413,4.9826 36.1413,10.8159 38.5,17C 36.051,23.4051 32.7177,29.2384 28.5,34.5C 21.8333,34.5 15.1667,34.5 8.5,34.5C 5.73695,29.2985 2.73695,24.2985 -0.5,19.5C -0.5,17.5 -0.5,15.5 -0.5,13.5C 2.48635,8.86977 5.48635,4.2031 8.5,-0.5 Z"/></g>
<g><path style="opacity:1" fill="#000000" d="M 100.5,10.5 C 101.5,10.5 102.5,10.5 103.5,10.5C 103.5,11.5 103.5,12.5 103.5,13.5C 102.5,13.5 101.5,13.5 100.5,13.5C 100.5,12.5 100.5,11.5 100.5,10.5 Z"/></g>
<g><path style="opacity:1" fill="#000000" d="M 117.5,10.5 C 118.5,10.5 119.5,10.5 120.5,10.5C 120.34,12.1992 120.506,13.8659 121,15.5C 122.667,14.1667 124.333,14.1667 126,15.5C 126.498,18.4816 126.665,21.4816 126.5,24.5C 125.5,24.5 124.5,24.5 123.5,24.5C 123.813,21.7531 123.48,19.0865 122.5,16.5C 121.914,16.7093 121.414,17.0426 121,17.5C 120.503,19.8098 120.337,22.1432 120.5,24.5C 119.5,24.5 118.5,24.5 117.5,24.5C 117.5,19.8333 117.5,15.1667 117.5,10.5 Z"/></g>
<g><path style="opacity:1" fill="#000000" d="M 49.5,11.5 C 51.8568,11.3367 54.1902,11.5034 56.5,12C 58.9938,14.2436 58.9938,16.5769 56.5,19C 57.376,20.586 58.376,22.086 59.5,23.5C 58.635,24.5827 57.635,24.7494 56.5,24C 53.9986,17.9618 52.6653,18.1284 52.5,24.5C 51.5,24.5 50.5,24.5 49.5,24.5C 49.5,20.1667 49.5,15.8333 49.5,11.5 Z M 52.5,13.5 C 53.5,13.5 54.5,13.5 55.5,13.5C 55.7778,15.3464 55.1112,16.6798 53.5,17.5C 52.5713,16.3112 52.238,14.9778 52.5,13.5 Z"/></g>
<g><path style="opacity:1" fill="#000000" d="M 80.5,16.5 C 81.4363,14.5585 82.7697,12.8919 84.5,11.5C 85.3539,12.9479 86.3539,14.2813 87.5,15.5C 84.8333,18.1667 84.8333,20.8333 87.5,23.5C 86.277,24.6139 84.9437,24.7805 83.5,24C 83.1537,21.0597 82.1537,18.5597 80.5,16.5 Z"/></g>
<g><path style="opacity:1" fill="#000000" d="M 89.5,11.5 C 91.8568,11.3367 94.1902,11.5034 96.5,12C 98.9938,14.2436 98.9938,16.5769 96.5,19C 97.376,20.586 98.376,22.086 99.5,23.5C 98.635,24.5827 97.635,24.7494 96.5,24C 93.9986,17.9618 92.6653,18.1284 92.5,24.5C 91.5,24.5 90.5,24.5 89.5,24.5C 89.5,20.1667 89.5,15.8333 89.5,11.5 Z M 92.5,13.5 C 93.5,13.5 94.5,13.5 95.5,13.5C 95.7778,15.3464 95.1112,16.6798 93.5,17.5C 92.5713,16.3112 92.238,14.9778 92.5,13.5 Z"/></g>
<g><path style="opacity:1" fill="#000000" d="M 130.5,11.5 C 132.057,12.4663 133.39,13.7996 134.5,15.5C 131.833,18.1667 131.833,20.8333 134.5,23.5C 132.994,24.7472 131.494,24.7472 130,23.5C 129.9,20.5628 129.067,17.8961 127.5,15.5C 128.91,14.4305 129.91,13.0972 130.5,11.5 Z"/></g>
<g><path style="opacity:1" fill="#000000" d="M 63.5,14.5 C 67.8333,14.1667 69.8333,16.1667 69.5,20.5C 67.4727,20.3379 65.4727,20.5045 63.5,21C 64.8646,22.6819 66.3646,22.8486 68,21.5C 68.4828,22.448 68.6495,23.448 68.5,24.5C 60.0358,24.479 58.3692,21.1456 63.5,14.5 Z M 64.5,16.5 C 65.3764,16.3691 66.0431,16.7025 66.5,17.5C 64.1916,18.8734 63.5249,18.5401 64.5,16.5 Z"/></g>
<g><path style="opacity:1" fill="#000000" d="M 80.5,16.5 C 80.5,19.1667 80.5,21.8333 80.5,24.5C 79.5,24.5 78.5,24.5 77.5,24.5C 77.6633,22.1432 77.4966,19.8098 77,17.5C 76,16.1667 75,16.1667 74,17.5C 73.5034,19.8098 73.3367,22.1432 73.5,24.5C 72.5,24.5 71.5,24.5 70.5,24.5C 70.5,21.1667 70.5,17.8333 70.5,14.5C 72.7105,15.5828 74.8771,15.5828 77,14.5C 78.4343,14.8618 79.6009,15.5285 80.5,16.5 Z"/></g>
<g><path style="opacity:1" fill="#000000" d="M 100.5,14.5 C 101.5,14.5 102.5,14.5 103.5,14.5C 103.5,17.8333 103.5,21.1667 103.5,24.5C 102.5,24.5 101.5,24.5 100.5,24.5C 100.5,21.1667 100.5,17.8333 100.5,14.5 Z"/></g>
<g><path style="opacity:1" fill="#000000" d="M 107.5,14.5 C 110.272,15.3715 112.938,15.3715 115.5,14.5C 115.766,18.5705 115.433,22.5705 114.5,26.5C 112.149,28.2289 109.482,28.8956 106.5,28.5C 106.065,25.3873 107.065,24.7207 109.5,26.5C 111,26.5472 112,25.8805 112.5,24.5C 105.319,24.6358 103.652,21.3024 107.5,14.5 Z M 109.5,16.5 C 111.484,16.484 112.484,17.484 112.5,19.5C 111.167,23.5 109.833,23.5 108.5,19.5C 108.685,18.4163 109.018,17.4163 109.5,16.5 Z"/></g>
</svg>